<svg xmlns="http://www.w3.org/2000/svg" viewBox="0 0 240 72" width="240" height="72">
  <g transform="translate(4,4) scale(1)">
      <path d="M6 18 v-8 a4 4 0 0 1 4 -4 h8" fill="none" stroke="#4f46e5" stroke-width="5" stroke-linecap="round"/>
      <path d="M46 6 h8 a4 4 0 0 1 4 4 v8" fill="none" stroke="#4f46e5" stroke-width="5" stroke-linecap="round"/>
      <path d="M58 46 v8 a4 4 0 0 1 -4 4 h-8" fill="none" stroke="#4f46e5" stroke-width="5" stroke-linecap="round"/>
      <path d="M18 58 h-8 a4 4 0 0 1 -4 -4 v-8" fill="none" stroke="#4f46e5" stroke-width="5" stroke-linecap="round"/>
      <rect x="17" y="21" width="30" height="22" rx="4" fill="#4f46e5"/>
      <rect x="22" y="27" width="20" height="4" rx="2" fill="#fff"/>
      <rect x="22" y="34" width="12" height="4" rx="2" fill="#fff" opacity="0.7"/></g>
  <text x="82" y="34" font-family="'PingFang SC','Noto Sans CJK SC','Microsoft YaHei',sans-serif" font-size="30" font-weight="700" fill="#ffffff">座签</text>
  <text x="82" y="58" font-family="'Inter','SF Pro Display','Segoe UI',system-ui,sans-serif" font-size="16" font-weight="600" letter-spacing="1" fill="rgba(255,255,255,0.65)">SeatMark</text>
</svg>